<svg width="63" height="46" viewBox="0 0 63 46" fill="none" xmlns="http://www.w3.org/2000/svg">
<g clip-path="url(#clip0_10464_3500)">
<path d="M0 0H61C62.1046 0 63 0.895431 63 2V43.913C63 45.0176 62.1046 45.913 61 45.913H0V0Z" fill="#0D6EFD"/>
<path fill-rule="evenodd" clip-rule="evenodd" d="M25.5502 20.8944C25.2609 20.5925 25.2609 20.1031 25.5502 19.8012C25.8132 19.5268 26.2247 19.5019 26.5147 19.7264L26.5978 19.8012L31.9999 25.4379L37.4021 19.8012C37.665 19.5268 38.0766 19.5019 38.3665 19.7264L38.4496 19.8012C38.7126 20.0757 38.7365 20.5051 38.5213 20.8077L38.4496 20.8944L32.5237 27.0779C32.2607 27.3523 31.8492 27.3773 31.5592 27.1528L31.4761 27.0779L25.5502 20.8944Z" fill="white"/>
</g>
<defs>
<clipPath id="clip0_10464_3500">
<rect width="63" height="45.913" fill="white"/>
</clipPath>
</defs>
</svg>
